<svg xmlns="http://www.w3.org/2000/svg" width="272" height="53">
    <path fill="#FFF" fill-rule="evenodd" d="M271.89 39.588h-2.273l-5.443-11.244h-6.337v11.244h-2.143V12.573h7.436c1.206 0 2.29.173 3.253.519.963.347 1.78.857 2.451 1.531.671.674 1.186 1.506 1.547 2.495.36.99.54 2.128.54 3.415 0 .89-.112 1.725-.335 2.504a7.815 7.815 0 0 1-.951 2.116 6.937 6.937 0 0 1-1.482 1.642 6.516 6.516 0 0 1-1.91 1.067l5.647 11.485v.241zm-4.435-14.983a5.652 5.652 0 0 0 .987-1.864 7.252 7.252 0 0 0 .336-2.208c0-.916-.121-1.741-.364-2.477-.242-.736-.602-1.361-1.081-1.874a4.78 4.78 0 0 0-1.77-1.188c-.702-.278-1.513-.417-2.433-.417h-5.293v11.8h5.666c.87 0 1.637-.16 2.302-.482a4.755 4.755 0 0 0 1.65-1.29zm-20.111 13.471a6.68 6.68 0 0 1-2.563 1.438c-.976.297-2.016.445-3.122.445-1.143 0-2.206-.148-3.187-.445a6.58 6.58 0 0 1-2.563-1.438c-.727-.662-1.296-1.521-1.706-2.579-.41-1.058-.615-2.347-.615-3.869V12.573h2.125v19.055c0 1.176.146 2.168.438 2.978.292.811.702 1.466 1.23 1.967a4.692 4.692 0 0 0 1.883 1.086 8.17 8.17 0 0 0 2.395.334c.869 0 1.668-.112 2.395-.334a4.615 4.615 0 0 0 1.873-1.086c.522-.501.929-1.156 1.221-1.967.292-.81.438-1.802.438-2.978V12.573h2.143v19.055c0 1.522-.214 2.811-.643 3.869-.428 1.058-1.009 1.917-1.742 2.579zm-21.416-.909a7.284 7.284 0 0 1-2.758 2.087c-1.082.47-2.299.705-3.654.705-1.342 0-2.553-.235-3.634-.705a7.44 7.44 0 0 1-2.777-2.087c-.771-.922-1.364-2.066-1.78-3.433-.417-1.366-.625-2.941-.625-4.722v-5.826c0-1.781.205-3.355.615-4.722.41-1.367.998-2.514 1.762-3.442a7.413 7.413 0 0 1 2.768-2.106c1.081-.476 2.292-.714 3.634-.714 1.354 0 2.575.238 3.662.714a7.311 7.311 0 0 1 2.768 2.106c.758.928 1.342 2.075 1.752 3.442.41 1.367.615 2.941.615 4.722v5.826c0 1.781-.202 3.356-.605 4.722-.404 1.367-.985 2.511-1.743 3.433zm.205-14.018c0-2.956-.572-5.177-1.715-6.661-1.143-1.485-2.789-2.227-4.939-2.227-2.1 0-3.734.742-4.902 2.227-1.168 1.484-1.752 3.705-1.752 6.661v5.863c0 2.969.59 5.199 1.771 6.689 1.18 1.491 2.82 2.236 4.92 2.236 2.162 0 3.806-.742 4.93-2.227 1.125-1.484 1.687-3.717 1.687-6.698v-5.863zM199.89 39.588h-2.143V14.577h-7.698v-2.004h17.557v2.004h-7.716v25.011zm-23.656-5.529h-7.474l-1.454 5.529h-5.796l8.48-27.015h5.014l8.536 27.015h-5.852l-1.454-5.529zm-3.746-14.176l-2.535 9.63h5.07l-2.535-9.63zm-21.696 19.705l-3.168-15.92-3.131 15.92h-5.517l-4.846-27.015h5.461l2.553 16.959 3.187-16.959h4.604l3.187 16.977 2.572-16.977h5.424l-4.827 27.015h-5.499zm-28.218-9.871h-2.721v9.871h-5.48V12.573h8.741c1.355 0 2.563.176 3.625.528 1.063.353 1.964.872 2.703 1.559.739.687 1.305 1.537 1.696 2.551.392 1.015.587 2.19.587 3.526 0 .977-.09 1.858-.27 2.644a7.89 7.89 0 0 1-.783 2.096 6.635 6.635 0 0 1-1.239 1.605 7.953 7.953 0 0 1-1.64 1.188l4.752 11.059v.259h-5.889l-4.082-9.871zm3.494-10.214a3.54 3.54 0 0 0-.559-1.28 2.555 2.555 0 0 0-.978-.817c-.398-.191-.87-.288-1.417-.288h-3.261v8.053h3.112c1.093 0 1.914-.362 2.461-1.085.546-.724.82-1.692.82-2.904 0-.618-.06-1.178-.178-1.679zm-21.555 14.556h-7.474l-1.454 5.529h-5.796l8.48-27.015h5.014l8.536 27.015h-5.852l-1.454-5.529zm-3.746-14.176l-2.535 9.63h5.07l-2.535-9.63zm-19.44 12.395l.503-11.263-5.424 18.573h-3.727l-5.424-18.573.503 11.263v7.31h-5.48V12.573h7.158l5.125 19.538 5.107-19.538h7.157v27.015h-5.498v-7.31zM.013 39.763l-.015-26.499L22.985 0l23.004 13.236.016 26.5-22.988 13.263L.013 39.763zm44.629-25.75L22.986 1.552 1.345 14.039l.015 24.947 21.656 12.461L44.657 38.96l-.015-24.947zm-21.64 15.523l.726-.399v-2.182l19.188-10.998V38.01L23.728 49.008V33.749l-.726.39v-4.603zm4.288 13.336l12.064-6.915V22.093L27.29 29.008v13.864zm1.329-13.112l9.38-5.36v10.791l-9.38 5.361V29.76zM13.383 14.609l4.172-2.413 9.595 5.549-4.172 2.413-9.595-5.549zm9.621-7.033l-1.698.982 15.832 9.173-14.184 8.201L3.528 14.676l9.159-5.296 3.598 2.081-5.56 3.215 12.237 7.091 6.979-4.036-15.832-9.173 8.899-5.145L42.46 14.662l-3.602 2.083-15.854-9.169zM11.977 43.02l-8.806-5.065v-7.999L6.725 32v3.943l1.699.977v-5.884l-5.253-3.021V16.053l8.806 5.065V43.02zM8.424 23.13l-1.699-.977v3.851l1.699.976v-3.85zm8.662.921v10.596l-3.504-2.015V22.036l3.504 2.015zm.025 17.866l1.649.948V25.014l3.554 2.044v2.1l.687.378v4.603l-.687-.369v15.195l-8.757-5.036v-9.487l3.554 2.044v5.431z"/>
</svg>
