<?xml version="1.0" encoding="UTF-8"?>
<svg width="46px" height="53px" viewBox="0 0 46 53" version="1.1" xmlns="http://www.w3.org/2000/svg" xmlns:xlink="http://www.w3.org/1999/xlink">
    <!-- Generator: Sketch 49.2 (51160) - http://www.bohemiancoding.com/sketch -->
    <title>Untitled</title>
    <desc>Created with Sketch.</desc>
    <defs></defs>
    <g id="Page-1" stroke="none" stroke-width="1" fill="none" fill-rule="evenodd">
        <path d="M0.0129977177,39.763 L-0.002,13.264 L22.9815025,0 L45.9820024,13.236 L45.998,39.736 L23.0134976,52.999 L0.0129977177,39.763 Z M44.6352074,14.013 L22.9825024,1.552 L1.34479505,14.039 L1.35979277,38.986 L23.0124978,51.447 L44.6502051,38.96 L44.6352074,14.013 Z M22.9984999,29.536 L23.7243895,29.137 L23.7243895,26.955 L42.90947,15.957 L42.90947,38.01 L23.7243895,49.008 L23.7243895,33.749 L22.9984999,34.139 L22.9984999,29.536 Z M27.2858475,42.872 L39.348012,35.957 L39.348012,22.093 L27.2858475,29.008 L27.2858475,42.872 Z M28.6146453,29.76 L37.9932181,24.4 L37.9932181,35.191 L28.6146453,40.552 L28.6146453,29.76 Z M13.3809635,14.609 L17.5523287,12.196 L27.1458688,17.745 L22.9745036,20.158 L13.3809635,14.609 Z M23.0004996,7.576 L21.302758,8.558 L37.1323491,17.731 L22.9505072,25.932 L3.52746291,14.676 L12.6850694,9.38 L16.2825219,11.461 L10.7233679,14.676 L22.958506,21.767 L29.9364441,17.731 L14.106853,8.558 L23.004499,3.413 L42.4535394,14.662 L38.8520874,16.745 L23.0004996,7.576 Z M11.9751774,43.02 L3.17051723,37.955 L3.17051723,29.956 L6.72397648,32 L6.72397648,35.943 L8.42271798,36.92 L8.42271798,31.036 L3.17051723,28.015 L3.17051723,16.053 L11.9751774,21.118 L11.9751774,43.02 Z M8.42271798,23.13 L6.72397648,22.153 L6.72397648,26.004 L8.42271798,26.98 L8.42271798,23.13 Z M17.0834,24.051 L17.0834,34.647 L13.5799332,32.632 L13.5799332,22.036 L17.0834,24.051 Z M17.1083962,41.917 L18.7571453,42.865 L18.7571453,25.014 L22.3106046,27.058 L22.3106046,29.158 L22.9975001,29.536 L22.9975001,34.139 L22.3106046,33.77 L22.3106046,48.965 L13.554937,43.929 L13.554937,34.442 L17.1083962,36.486 L17.1083962,41.917 Z" id="Shape" fill="#FFFFFF"></path>
    </g>
</svg>